2024-08-23 14:38:12,050 - INFO - FFmpeg processing script started
2024-08-23 14:38:12,050 - INFO - Starting video processing for building.mp4
2024-08-23 14:38:12,050 - INFO - Executing FFmpeg command: ffmpeg -y -i building.mp4 -preset slow -crf 23 -maxrate 4000k -bufsize 7000k -vf unsharp=5:5:1.0,scale='min(1440,iw)':'-2' -c:v libx264 -c:a aac -b:a 192k -movflags +faststart output2.mp4
2024-08-23 14:38:12,132 - DEBUG - ffmpeg version 7.0.2 Copyright (c) 2000-2024 the FFmpeg developers
2024-08-23 14:38:12,132 - DEBUG - built with Apple clang version 15.0.0 (clang-1500.3.9.4)
2024-08-23 14:38:12,132 - DEBUG - configuration: --prefix=/opt/homebrew/Cellar/ffmpeg/7.0.2 --enable-shared --enable-pthreads --enable-version3 --cc=clang --host-cflags= --host-ldflags='-Wl,-ld_classic' --enable-ffplay --enable-gnutls --enable-gpl --enable-libaom --enable-libaribb24 --enable-libbluray --enable-libdav1d --enable-libharfbuzz --enable-libjxl --enable-libmp3lame --enable-libopus --enable-librav1e --enable-librist --enable-librubberband --enable-libsnappy --enable-libsrt --enable-libssh --enable-libsvtav1 --enable-libtesseract --enable-libtheora --enable-libvidstab --enable-libvmaf --enable-libvorbis --enable-libvpx --enable-libwebp --enable-libx264 --enable-libx265 --enable-libxml2 --enable-libxvid --enable-lzma --enable-libfontconfig --enable-libfreetype --enable-frei0r --enable-libass --enable-libopencore-amrnb --enable-libopencore-amrwb --enable-libopenjpeg --enable-libspeex --enable-libsoxr --enable-libzmq --enable-libzimg --disable-libjack --disable-indev=jack --enable-videotoolbox --enable-audiotoolbox --enable-neon
2024-08-23 14:38:12,133 - DEBUG - libavutil      59.  8.100 / 59.  8.100
2024-08-23 14:38:12,133 - DEBUG - libavcodec     61.  3.100 / 61.  3.100
2024-08-23 14:38:12,133 - DEBUG - libavformat    61.  1.100 / 61.  1.100
2024-08-23 14:38:12,133 - DEBUG - libavdevice    61.  1.100 / 61.  1.100
2024-08-23 14:38:12,133 - DEBUG - libavfilter    10.  1.100 / 10.  1.100
2024-08-23 14:38:12,133 - DEBUG - libswscale      8.  1.100 /  8.  1.100
2024-08-23 14:38:12,133 - DEBUG - libswresample   5.  1.100 /  5.  1.100
2024-08-23 14:38:12,133 - DEBUG - libpostproc    58.  1.100 / 58.  1.100
2024-08-23 14:38:12,215 - DEBUG - Input #0, mov,mp4,m4a,3gp,3g2,mj2, from 'building.mp4':
2024-08-23 14:38:12,215 - DEBUG - Metadata:
2024-08-23 14:38:12,215 - DEBUG - major_brand     : mp42
2024-08-23 14:38:12,215 - DEBUG - minor_version   : 0
2024-08-23 14:38:12,215 - DEBUG - compatible_brands: mp42mp41
2024-08-23 14:38:12,215 - DEBUG - creation_time   : 2024-07-18T18:11:36.000000Z
2024-08-23 14:38:12,215 - DEBUG - Duration: 00:00:30.07, start: 0.000000, bitrate: 5465 kb/s
2024-08-23 14:38:12,215 - DEBUG - Stream #0:0[0x1](eng): Video: h264 (Main) (avc1 / 0x31637661), yuv420p(tv, bt709, progressive), 2000x5836, 5070 kb/s, 30 fps, 30 tbr, 30k tbn (default)
2024-08-23 14:38:12,215 - DEBUG - Metadata:
2024-08-23 14:38:12,215 - DEBUG - creation_time   : 2024-07-18T18:11:36.000000Z
2024-08-23 14:38:12,215 - DEBUG - handler_name    : ?Mainconcept Video Media Handler
2024-08-23 14:38:12,215 - DEBUG - vendor_id       : [0][0][0][0]
2024-08-23 14:38:12,215 - DEBUG - encoder         : AVC Coding
2024-08-23 14:38:12,215 - DEBUG - Stream #0:1[0x2](eng): Audio: aac (LC) (mp4a / 0x6134706D), 48000 Hz, stereo, fltp, 317 kb/s (default)
2024-08-23 14:38:12,215 - DEBUG - Metadata:
2024-08-23 14:38:12,215 - DEBUG - creation_time   : 2024-07-18T18:11:36.000000Z
2024-08-23 14:38:12,215 - DEBUG - handler_name    : #Mainconcept MP4 Sound Media Handler
2024-08-23 14:38:12,215 - DEBUG - vendor_id       : [0][0][0][0]
2024-08-23 14:38:12,220 - DEBUG - Stream mapping:
2024-08-23 14:38:12,220 - DEBUG - Stream #0:0 -> #0:0 (h264 (native) -> h264 (libx264))
2024-08-23 14:38:12,220 - DEBUG - Stream #0:1 -> #0:1 (aac (native) -> aac (native))
2024-08-23 14:38:12,220 - DEBUG - Press [q] to stop, [?] for help
2024-08-23 14:38:12,288 - DEBUG - [libx264 @ 0x154108fc0] using cpu capabilities: ARMv8 NEON
2024-08-23 14:38:12,295 - DEBUG - [libx264 @ 0x154108fc0] profile High, level 5.1, 4:2:0, 8-bit
2024-08-23 14:38:12,295 - DEBUG - [libx264 @ 0x154108fc0] 264 - core 164 r3108 31e19f9 - H.264/MPEG-4 AVC codec - Copyleft 2003-2023 - http://www.videolan.org/x264.html - options: cabac=1 ref=5 deblock=1:0:0 analyse=0x3:0x113 me=hex subme=8 psy=1 psy_rd=1.00:0.00 mixed_ref=1 me_range=16 chroma_me=1 trellis=2 8x8dct=1 cqm=0 deadzone=21,11 fast_pskip=1 chroma_qp_offset=-2 threads=18 lookahead_threads=3 sliced_threads=0 nr=0 decimate=1 interlaced=0 bluray_compat=0 constrained_intra=0 bframes=3 b_pyramid=2 b_adapt=1 b_bias=0 direct=3 weightb=1 open_gop=0 weightp=2 keyint=250 keyint_min=25 scenecut=40 intra_refresh=0 rc_lookahead=50 rc=crf mbtree=1 crf=23.0 qcomp=0.60 qpmin=0 qpmax=69 qpstep=4 vbv_maxrate=4000 vbv_bufsize=7000 crf_max=0.0 nal_hrd=none filler=0 ip_ratio=1.40 aq=1:1.00
2024-08-23 14:38:12,296 - DEBUG - Output #0, mp4, to 'output2.mp4':
2024-08-23 14:38:12,296 - DEBUG - Metadata:
2024-08-23 14:38:12,296 - DEBUG - major_brand     : mp42
2024-08-23 14:38:12,296 - DEBUG - minor_version   : 0
2024-08-23 14:38:12,296 - DEBUG - compatible_brands: mp42mp41
2024-08-23 14:38:12,296 - DEBUG - encoder         : Lavf61.1.100
2024-08-23 14:38:12,296 - DEBUG - Stream #0:0(eng): Video: h264 (avc1 / 0x31637661), yuv420p(tv, bt709, progressive), 1440x4202, q=2-31, 30 fps, 15360 tbn (default)
2024-08-23 14:38:12,296 - DEBUG - Metadata:
2024-08-23 14:38:12,296 - DEBUG - creation_time   : 2024-07-18T18:11:36.000000Z
2024-08-23 14:38:12,296 - DEBUG - handler_name    : ?Mainconcept Video Media Handler
2024-08-23 14:38:12,296 - DEBUG - vendor_id       : [0][0][0][0]
2024-08-23 14:38:12,296 - DEBUG - encoder         : Lavc61.3.100 libx264
2024-08-23 14:38:12,296 - DEBUG - Side data:
2024-08-23 14:38:12,296 - DEBUG - cpb: bitrate max/min/avg: 4000000/0/0 buffer size: 7000000 vbv_delay: N/A
2024-08-23 14:38:12,296 - DEBUG - Stream #0:1(eng): Audio: aac (LC) (mp4a / 0x6134706D), 48000 Hz, stereo, fltp, 192 kb/s (default)
2024-08-23 14:38:12,296 - DEBUG - Metadata:
2024-08-23 14:38:12,296 - DEBUG - creation_time   : 2024-07-18T18:11:36.000000Z
2024-08-23 14:38:12,296 - DEBUG - handler_name    : #Mainconcept MP4 Sound Media Handler
2024-08-23 14:38:12,296 - DEBUG - vendor_id       : [0][0][0][0]
2024-08-23 14:38:12,296 - DEBUG - encoder         : Lavc61.3.100 aac
2024-08-23 14:38:13,230 - DEBUG - frame=    0 fps=0.0 q=0.0 size=       0KiB time=N/A bitrate=N/A speed=N/A
2024-08-23 14:38:13,735 - DEBUG - frame=   29 fps= 29 q=29.0 size=       0KiB time=00:00:00.90 bitrate=   0.4kbits/s speed=0.891x
2024-08-23 14:38:14,240 - DEBUG - frame=   83 fps= 55 q=29.0 size=       0KiB time=00:00:02.70 bitrate=   0.1kbits/s speed=1.78x
2024-08-23 14:38:14,746 - DEBUG - frame=  137 fps= 68 q=29.0 size=       0KiB time=00:00:04.50 bitrate=   0.1kbits/s speed=2.23x
2024-08-23 14:38:15,251 - DEBUG - frame=  189 fps= 75 q=29.0 size=       0KiB time=00:00:06.26 bitrate=   0.1kbits/s speed=2.48x
2024-08-23 14:38:15,756 - DEBUG - frame=  234 fps= 77 q=26.0 size=     256KiB time=00:00:07.73 bitrate= 271.2kbits/s speed=2.55x
2024-08-23 14:38:16,261 - DEBUG - frame=  293 fps= 83 q=29.0 size=     256KiB time=00:00:09.70 bitrate= 216.2kbits/s speed=2.74x
2024-08-23 14:38:16,766 - DEBUG - frame=  346 fps= 86 q=29.0 size=     256KiB time=00:00:11.46 bitrate= 182.9kbits/s speed=2.84x
2024-08-23 14:38:17,271 - DEBUG - frame=  397 fps= 87 q=29.0 size=     512KiB time=00:00:13.16 bitrate= 318.6kbits/s speed= 2.9x
2024-08-23 14:38:17,776 - DEBUG - frame=  450 fps= 89 q=29.0 size=     512KiB time=00:00:14.93 bitrate= 280.9kbits/s speed=2.96x
2024-08-23 14:38:18,283 - DEBUG - frame=  496 fps= 89 q=29.0 size=     512KiB time=00:00:16.46 bitrate= 254.7kbits/s speed=2.96x
2024-08-23 14:38:18,784 - DEBUG - frame=  552 fps= 91 q=29.0 size=     768KiB time=00:00:18.36 bitrate= 342.6kbits/s speed=3.03x
2024-08-23 14:38:19,288 - DEBUG - frame=  605 fps= 92 q=29.0 size=     768KiB time=00:00:20.10 bitrate= 313.0kbits/s speed=3.06x
2024-08-23 14:38:19,791 - DEBUG - frame=  658 fps= 93 q=29.0 size=     768KiB time=00:00:21.86 bitrate= 287.7kbits/s speed=3.09x
2024-08-23 14:38:20,297 - DEBUG - frame=  711 fps= 94 q=29.0 size=     768KiB time=00:00:23.63 bitrate= 266.2kbits/s speed=3.12x
2024-08-23 14:38:20,802 - DEBUG - frame=  761 fps= 94 q=29.0 size=    1024KiB time=00:00:25.33 bitrate= 331.1kbits/s speed=3.14x
2024-08-23 14:38:21,108 - DEBUG - frame=  815 fps= 95 q=29.0 size=    1024KiB time=00:00:27.10 bitrate= 309.6kbits/s speed=3.16x
2024-08-23 14:38:21,109 - DEBUG - [mp4 @ 0x154106420] Starting second pass: moving the moov atom to the beginning of the file
2024-08-23 14:38:21,110 - DEBUG - [out#0/mp4 @ 0x154106360] video:1245KiB audio:8KiB subtitle:0KiB other streams:0KiB global headers:0KiB muxing overhead: 2.696214%
2024-08-23 14:38:21,110 - DEBUG - frame=  902 fps=101 q=-1.0 Lsize=    1287KiB time=00:00:30.00 bitrate= 351.4kbits/s speed=3.37x
2024-08-23 14:38:21,111 - DEBUG - [libx264 @ 0x154108fc0] frame I:4     Avg QP:15.13  size: 44747
2024-08-23 14:38:21,111 - DEBUG - [libx264 @ 0x154108fc0] frame P:227   Avg QP:20.21  size:  3389
2024-08-23 14:38:21,111 - DEBUG - [libx264 @ 0x154108fc0] frame B:671   Avg QP:23.21  size:   485
2024-08-23 14:38:21,111 - DEBUG - [libx264 @ 0x154108fc0] consecutive B-frames:  0.8%  0.0%  0.3% 98.9%
2024-08-23 14:38:21,111 - DEBUG - [libx264 @ 0x154108fc0] mb I  I16..4: 40.2% 57.4%  2.4%
2024-08-23 14:38:21,111 - DEBUG - [libx264 @ 0x154108fc0] mb P  I16..4:  0.1%  0.0%  0.0%  P16..4:  2.0%  0.4%  0.2%  0.0%  0.0%    skip:97.3%
2024-08-23 14:38:21,111 - DEBUG - [libx264 @ 0x154108fc0] mb B  I16..4:  0.0%  0.0%  0.0%  B16..8:  0.9%  0.0%  0.0%  direct: 0.0%  skip:99.0%  L0:50.0% L1:48.7% BI: 1.3%
2024-08-23 14:38:21,111 - DEBUG - [libx264 @ 0x154108fc0] 8x8 transform intra:56.2% inter:54.3%
2024-08-23 14:38:21,111 - DEBUG - [libx264 @ 0x154108fc0] direct mvs  spatial:98.5% temporal:1.5%
2024-08-23 14:38:21,111 - DEBUG - [libx264 @ 0x154108fc0] coded y,uvDC,uvAC intra: 4.6% 4.2% 2.7% inter: 0.2% 0.2% 0.0%
2024-08-23 14:38:21,111 - DEBUG - [libx264 @ 0x154108fc0] i16 v,h,dc,p: 91%  5%  1%  2%
2024-08-23 14:38:21,111 - DEBUG - [libx264 @ 0x154108fc0] i8 v,h,dc,ddl,ddr,vr,hd,vl,hu: 49% 18% 30%  0%  1%  0%  1%  0%  1%
2024-08-23 14:38:21,111 - DEBUG - [libx264 @ 0x154108fc0] i4 v,h,dc,ddl,ddr,vr,hd,vl,hu: 26% 24% 18%  3%  7%  6%  5%  4%  7%
2024-08-23 14:38:21,111 - DEBUG - [libx264 @ 0x154108fc0] i8c dc,h,v,p: 95%  3%  2%  0%
2024-08-23 14:38:21,111 - DEBUG - [libx264 @ 0x154108fc0] Weighted P-Frames: Y:0.4% UV:0.4%
2024-08-23 14:38:21,111 - DEBUG - [libx264 @ 0x154108fc0] ref P L0: 73.3%  6.0% 11.3%  4.6%  4.8%
2024-08-23 14:38:21,111 - DEBUG - [libx264 @ 0x154108fc0] ref B L0: 77.1% 16.6%  4.6%  1.7%
2024-08-23 14:38:21,111 - DEBUG - [libx264 @ 0x154108fc0] ref B L1: 95.6%  4.4%
2024-08-23 14:38:21,111 - DEBUG - [libx264 @ 0x154108fc0] kb/s:338.89
2024-08-23 14:38:21,137 - DEBUG - [aac @ 0x152f9fa80] Qavg: 65536.000
2024-08-23 14:38:21,158 - INFO - Video processing completed. Output saved to output2.mp4
2024-08-23 14:38:21,158 - INFO - FFmpeg processing script finished
